<?xml version="1.0" encoding="utf-8"?>
<!-- Generator: Adobe Illustrator 21.0.0, SVG Export Plug-In . SVG Version: 6.00 Build 0)  -->
<svg version="1.1" xmlns="http://www.w3.org/2000/svg" xmlns:xlink="http://www.w3.org/1999/xlink" x="0px" y="0px"
	 viewBox="0 0 16.6 13.1" style="enable-background:new 0 0 16.6 13.1;" xml:space="preserve">
<style type="text/css">
	.st0{fill:#7043B7;}
	.st1{fill:#FFFFFF;}
	.st2{fill:#F9F9F9;}
	.st3{fill:#29124C;}
	.st4{opacity:0.5;}
	.st5{opacity:0.2;}
	.st6{fill:#EDA900;}
	.st7{fill:none;stroke:#BDA2DC;stroke-width:0.25;stroke-miterlimit:10;}
	.st8{fill:url(#SVGID_1_);}
	.st9{fill:#F3EDF8;}
	.st10{fill:url(#SVGID_4_);}
	.st11{fill:#898989;}
	.st12{fill:#EFC064;}
	.st13{fill:#F8D69A;}
	.st14{fill:#CACACA;}
	.st15{fill:#E4E4E4;}
	.st16{opacity:0.62;fill:none;stroke:#EDBC5A;stroke-width:0.25;stroke-miterlimit:10;}
	.st17{fill:none;stroke:#CACACA;stroke-width:0.25;stroke-miterlimit:10;}
	.st18{fill:url(#SVGID_5_);}
	.st19{fill:url(#SVGID_8_);}
	.st20{fill:#1A1A1A;}
	.st21{fill:#E8E8E8;}
	.st22{opacity:0.29;}
	.st23{fill:#CBF7DD;}
	.st24{fill:#FFF1DC;}
	.st25{fill:#E73E51;}
	.st26{opacity:0.27;fill:#FFF1DC;}
	.st27{fill:#777777;}
	.st28{fill:#34AD7B;}
	.st29{fill:#AAAAAA;}
	.st30{fill:#009800;}
	.st31{fill:url(#SVGID_9_);}
	.st32{fill:url(#SVGID_10_);}
	.st33{fill:#40CC8C;}
	.st34{fill:#5B2D98;}
	.st35{fill:#8C68C6;}
	.st36{fill:url(#SVGID_11_);}
	.st37{fill:url(#SVGID_12_);}
	.st38{fill:#391860;}
	.st39{fill:#F8D597;}
	.st40{fill:url(#SVGID_13_);}
	.st41{fill:url(#SVGID_14_);}
	.st42{fill:url(#SVGID_15_);}
	.st43{fill:url(#SVGID_16_);}
	.st44{fill:#FAD8DC;}
	.st45{fill:#F18B97;}
	.st46{fill:url(#SVGID_17_);}
	.st47{fill:url(#SVGID_20_);}
	.st48{fill:#808080;}
	.st49{fill:#39B34A;}
	.st50{fill:#F4CC82;}
	.st51{fill:none;stroke:#EF5A24;stroke-miterlimit:10;}
	.st52{fill:#EF5A24;}
</style>
<g id="Fondos">
</g>
<g id="Fondos_2">
</g>
<g id="Contenido">
	<g id="Capa_2_1_">
		<g id="Capa_1-2_1_">
			<path class="st50" d="M14.1,0.4H2.5c-1.1,0-1.9,0.9-1.9,1.9v1.5l7.7,3.6L16,3.8V2.3C16,1.3,15.2,0.4,14.1,0.4z"/>
			<path class="st50" d="M8.3,9.1C8.2,9.1,8,9.1,7.9,9L0.5,5.6v5.1c0,1.1,0.9,1.9,1.9,1.9c0,0,0,0,0,0h11.7c1.1,0,1.9-0.9,1.9-1.9
				V5.6L8.6,9C8.5,9.1,8.4,9.1,8.3,9.1z"/>
		</g>
	</g>
</g>
<g id="Estilos">
</g>
</svg>
