<?xml version="1.0" encoding="utf-8"?>
<!-- Generator: Adobe Illustrator 21.0.0, SVG Export Plug-In . SVG Version: 6.00 Build 0)  -->
<svg version="1.1" id="Capa_1" xmlns="http://www.w3.org/2000/svg" xmlns:xlink="http://www.w3.org/1999/xlink" x="0px" y="0px"
	 viewBox="0 0 20.6 9.2" style="enable-background:new 0 0 20.6 9.2;" xml:space="preserve">
<style type="text/css">
	.st0{fill:#7DCA8D;}
	.st1{fill:#6AAA7D;}
	.st2{fill:#F3D390;}
	.st3{fill:#DAA627;}
	.st4{fill:#AAAAAA;}
	.st5{fill:#F0D6DA;}
	.st6{fill:#D88994;}
	.st7{fill:#8764C8;}
</style>
<path class="st4" d="M20,4.8c0-0.1,0-0.1,0-0.2l-0.1-0.2c-0.1-0.3-0.3-0.5-0.5-0.7l0,0c0,0-0.1,0-0.1,0c0,0-0.1,0-0.1,0
	c-0.1,0-0.2-0.1-0.3-0.1l-2.2-0.2l0,0l-0.6,0c-0.7-0.1-1.5,0-2.2,0.2l-1,0.3L7.8,0.4C7.7,0.3,7.5,0.2,7.3,0.3
	c-0.4,0.1-0.6,0.6-0.4,1l2.3,3.5L5.9,5.6l-1.5-1l0,0L4,4.4L1.7,2.9C1.5,2.8,1.3,2.7,1.1,2.8c-0.4,0.1-0.6,0.6-0.4,1l1.7,2.8L2,6.7
	C1.7,6.8,1.6,7.1,1.6,7.4c0.1,0.2,0.2,0.4,0.4,0.6c0.7,0.3,1.4,0.5,2.1,0.7l0,0l0,0c0,0,0,0,0,0c0,0,0,0,0.1,0
	c0.3,0.1,0.6,0.1,0.8,0.2l0,0c0.2,0,0.4,0.1,0.6,0.1c0.1,0,0.2,0,0.4,0c0.5,0,1,0.1,1.5,0.1c0,0,0,0,0,0c0.5,0,1-0.1,1.5-0.1
	c0.1,0,0.2,0,0.4-0.1c0.5-0.1,1-0.2,1.5-0.3l5-1.3c1-0.3,1.9-0.6,2.8-1.1l0.7-0.4C19.8,5.4,20,5.1,20,4.8L20,4.8z"/>
</svg>
