<?xml version="1.0" encoding="utf-8"?>
<!-- Generator: Adobe Illustrator 21.0.0, SVG Export Plug-In . SVG Version: 6.00 Build 0)  -->
<svg version="1.1" id="Capa_1" xmlns="http://www.w3.org/2000/svg" xmlns:xlink="http://www.w3.org/1999/xlink" x="0px" y="0px"
	 viewBox="0 0 13 13" style="enable-background:new 0 0 13 13;" xml:space="preserve">
<style type="text/css">
	.st0{fill:#7DCA8D;}
	.st1{fill:#6AAA7D;}
	.st2{fill:#F3D390;}
	.st3{fill:#DAA627;}
	.st4{fill:#AAAAAA;}
	.st5{fill:#F0D6DA;}
	.st6{fill:#D88994;}
	.st7{fill:#8764C8;}
</style>
<path class="st7" d="M10.9,3.4h-0.6V0.2H2.7v3.1H2.1c-1,0-1.9,0.8-1.9,1.9v4.4c0,0.3,0.3,0.6,0.6,0.6h1.9v2.5h7.5v-2.5h1.9
	c0.3,0,0.6-0.3,0.6-0.6V5.2C12.8,4.2,11.9,3.4,10.9,3.4z M7.8,6.5V5.2H9v1.3H7.8z M4,1.5h5v1.9H4V1.5z M9,11.5H4V9.6V8.4h5v1.3V11.5
	z M10.9,6.5H9.6V5.2h1.3V6.5z"/>
</svg>
