<?xml version="1.0" encoding="utf-8"?>
<!-- Generator: Adobe Illustrator 21.0.0, SVG Export Plug-In . SVG Version: 6.00 Build 0)  -->
<svg version="1.1" id="Capa_1" xmlns="http://www.w3.org/2000/svg" xmlns:xlink="http://www.w3.org/1999/xlink" x="0px" y="0px"
	 viewBox="0 0 13 15" style="enable-background:new 0 0 13 15;" xml:space="preserve">
<style type="text/css">
	.st0{fill:#7DCA8D;}
	.st1{fill:#6AAA7D;}
	.st2{fill:#F3D390;}
	.st3{fill:#DAA627;}
	.st4{fill:#AAAAAA;}
	.st5{fill:#F0D6DA;}
	.st6{fill:#D88994;}
	.st7{fill:#8764C8;}
</style>
<path class="st4" d="M12,12.1c-0.7-2-2.8-0.4-3.7-2.3c0.6-0.6,1.2-1.5,1.5-2.4c0,0,0.1,0,0.1,0.1c0.3,0.1,0.6-0.4,0.7-1.1
	c0.1-0.7,0-1.2-0.3-1.2c-0.1,0-0.1,0-0.1,0c0-0.1,0-0.2,0-0.3c0.1-0.4,0.1-0.9,0-1.4C10.1,3.2,10,2.8,9.9,2.6C9.9,2.4,9.8,2,9.6,1.7
	C9.3,0.9,8.3,0.4,6.6,0.4l0,0l0,0c-1.7,0-2.8,0.6-3.1,1.3C3.2,2,3.2,2.3,3.1,2.6C3,2.8,2.9,3.1,2.9,3.4c-0.1,0.5-0.1,1,0,1.4
	c0,0.1,0,0.2,0,0.3c-0.1,0-0.1,0-0.1,0c-0.3,0-0.5,0.6-0.4,1.2C2.5,7,2.8,7.5,3.1,7.4c0.1,0,0.1,0,0.1-0.1c0.4,1,0.9,1.9,1.6,2.4
	c-1,1.9-3,0.3-3.7,2.3c-0.3,0.9-0.4,1.8-0.3,2.6h5.8h5.8C12.4,13.9,12.3,13,12,12.1z"/>
</svg>
