<?xml version="1.0" encoding="utf-8"?>
<!-- Generator: Adobe Illustrator 21.0.0, SVG Export Plug-In . SVG Version: 6.00 Build 0)  -->
<svg version="1.1" xmlns="http://www.w3.org/2000/svg" xmlns:xlink="http://www.w3.org/1999/xlink" x="0px" y="0px"
	 viewBox="0 0 17.3 17.3" style="enable-background:new 0 0 17.3 17.3;" xml:space="preserve">
<style type="text/css">
	.st0{fill:#7043B7;}
	.st1{fill:#FFFFFF;}
	.st2{fill:#F9F9F9;}
	.st3{fill:#29124C;}
	.st4{opacity:0.5;}
	.st5{opacity:0.2;}
	.st6{fill:#EDA900;}
	.st7{fill:none;stroke:#BDA2DC;stroke-width:0.25;stroke-miterlimit:10;}
	.st8{fill:url(#SVGID_1_);}
	.st9{fill:#F3EDF8;}
	.st10{fill:url(#SVGID_4_);}
	.st11{fill:#898989;}
	.st12{fill:#EFC064;}
	.st13{fill:#F8D69A;}
	.st14{fill:#CACACA;}
	.st15{fill:#E4E4E4;}
	.st16{opacity:0.62;fill:none;stroke:#EDBC5A;stroke-width:0.25;stroke-miterlimit:10;}
	.st17{fill:none;stroke:#CACACA;stroke-width:0.25;stroke-miterlimit:10;}
	.st18{fill:url(#SVGID_5_);}
	.st19{fill:url(#SVGID_8_);}
	.st20{fill:#1A1A1A;}
	.st21{fill:#E8E8E8;}
	.st22{opacity:0.29;}
	.st23{fill:#CBF7DD;}
	.st24{fill:#FFF1DC;}
	.st25{fill:#E73E51;}
	.st26{opacity:0.27;fill:#FFF1DC;}
	.st27{fill:#777777;}
	.st28{fill:#34AD7B;}
	.st29{fill:#AAAAAA;}
	.st30{fill:#009800;}
	.st31{fill:url(#SVGID_9_);}
	.st32{fill:url(#SVGID_10_);}
	.st33{fill:#40CC8C;}
	.st34{fill:#5B2D98;}
	.st35{fill:#8C68C6;}
	.st36{fill:url(#SVGID_11_);}
	.st37{fill:url(#SVGID_12_);}
	.st38{fill:#391860;}
	.st39{fill:#F8D597;}
	.st40{fill:url(#SVGID_13_);}
	.st41{fill:url(#SVGID_14_);}
	.st42{fill:url(#SVGID_15_);}
	.st43{fill:url(#SVGID_16_);}
	.st44{fill:#FAD8DC;}
	.st45{fill:#F18B97;}
	.st46{fill:url(#SVGID_17_);}
	.st47{fill:url(#SVGID_20_);}
	.st48{fill:#808080;}
	.st49{fill:#39B34A;}
	.st50{fill:#F4CC82;}
	.st51{fill:none;stroke:#EF5A24;stroke-miterlimit:10;}
	.st52{fill:#EF5A24;}
</style>
<g id="Fondos">
</g>
<g id="Fondos_2">
</g>
<g id="Contenido">
	<path class="st50" d="M8.7,0.4L8.7,0.4c-4.6,0-8.3,3.7-8.3,8.3c0,1.8,0.6,3.5,1.6,4.8l-1,3.1l3.2-1c1.3,0.9,2.9,1.4,4.5,1.4
		c4.6,0,8.3-3.7,8.3-8.3S13.2,0.4,8.7,0.4z M13,12.2c-0.3,0.3-0.4,0.4-0.7,0.7c-0.3,0.4-0.8,0.4-1.2,0.4c-0.7-0.1-1.3-0.3-1.9-0.6
		c-1.3-0.6-2.5-1.5-3.4-2.6C5.2,9.3,4.6,8.4,4.2,7.4C4,6.9,3.9,6.4,3.9,5.9C4,5.5,4.1,5.2,4.4,5c0.3-0.3,0.5-0.5,0.8-0.8
		c0.3-0.3,0.8-0.3,1.1,0c0.2,0.2,0.4,0.4,0.6,0.6c0.3,0.3,0.4,0.4,0.6,0.6c0.4,0.4,0.4,0.8,0,1.1C7.2,6.9,6.9,7.1,6.7,7.4
		C6.6,7.4,6.6,7.5,6.6,7.5c0.2,0.4,0.4,0.8,0.7,1.1c0.6,0.7,1.2,1.3,1.9,1.8c0.2,0.1,0.3,0.2,0.5,0.3c0.1,0.1,0.1,0.1,0.2-0.1
		c0.3-0.3,0.5-0.5,0.8-0.8c0.3-0.3,0.8-0.3,1.1,0c0.4,0.4,0.9,0.8,1.3,1.3C13.4,11.4,13.3,11.8,13,12.2z"/>
</g>
<g id="Estilos">
</g>
</svg>
